<svg width="512" height="512" viewBox="0 0 512 512" fill="none" xmlns="http://www.w3.org/2000/svg">
<path d="M450.855 143.5V368.5L256 481L61.1445 368.5V143.5L256 31L450.855 143.5ZM78 153V359L256 462L434 359V153L256 50L78 153Z" fill="url(#paint0_linear_5_66)"/>
<path d="M428 156.5V355.5L256 455L84 355.5V156.5L256 57L428 156.5ZM255.956 143C253.925 143 251.937 143.442 250.082 144.281L166.916 179.587C157.2 183.696 149.956 193.285 150 204.861C150.221 248.695 168.197 328.894 244.34 365.349C251.716 368.884 260.284 368.884 267.66 365.349C343.759 328.894 361.779 248.695 362 204.861C362.044 193.285 354.801 183.696 345.084 179.587L261.874 144.281C260.019 143.442 257.988 143 255.956 143ZM255.956 172.562L333.689 205.524C333.292 244.674 316.906 310.071 255.956 339.588V172.562Z" fill="url(#paint1_linear_5_66)"/>
<defs>
<linearGradient id="paint0_linear_5_66" x1="256" y1="31" x2="256" y2="481" gradientUnits="userSpaceOnUse">
<stop offset="0.197112" stop-color="#878681"/>
<stop offset="1" stop-color="#212120"/>
</linearGradient>
<linearGradient id="paint1_linear_5_66" x1="256" y1="57" x2="256" y2="455" gradientUnits="userSpaceOnUse">
<stop offset="0.100956" stop-color="#878681"/>
<stop offset="0.600963" stop-color="#4F4F4C" stop-opacity="0.9"/>
<stop offset="1" stop-color="#212120" stop-opacity="0.8"/>
</linearGradient>
</defs>
</svg>
